# xmcd
#
# Track frame offsets:
#	150
#	21495
#	36147
#	56537
#	76165
#	95977
#	116625
#	137430
#	155260
#	169745
#	190037
#	211932
#	227942
#	247952
#	263082
#	284997
#
# Disc length: 4115 seconds
# Revision: 12
# Processed by: cddbd v1.5.2PL0 Copyright (c) Steve Scherf et al.
# Submitted via: dBpowerAMP V12.0
#
DISCID=e0101110
DTITLE=Jeff Healey - The Very Best of Jeff Healey Band
DYEAR=1998
DGENRE=Blues Rock
TTITLE0=It Could All Get Blown Away
TTITLE1=Communication Breakdown
TTITLE2=Yer Blues
TTITLE3=Stop Breakin' Down
TTITLE4=Run Through the Jungle
TTITLE5=Cruel Little Number
TTITLE6=Shapes of Things
TTITLE7=Badge
TTITLE8=Confidence Man
TTITLE9=Angel
TTITLE10=House That Love Built
TTITLE11=River of No Return
TTITLE12=See the Light
TTITLE13=Don't Let Your Chance Go By
TTITLE14=Nice Problem to Have
TTITLE15=While My Guitar Gently Weeps
EXTD=
EXTT0=
EXTT1=
EXTT2=
EXTT3=
EXTT4=
EXTT5=
EXTT6=
EXTT7=
EXTT8=
EXTT9=
EXTT10=
EXTT11=
EXTT12=
EXTT13=
EXTT14=
EXTT15=
PLAYORDER=
